<?xml version="1.0" encoding="UTF-8"?>
<svg id="Layer_1" data-name="Layer 1" xmlns="http://www.w3.org/2000/svg" viewBox="0 0 2048 2048">
  <defs>
    <style>
      .cls-1 {
        fill: #e26600;
        stroke-width: 0px;
      }
    </style>
  </defs>
  <path class="cls-1" d="M579.42,1143.18l60-21.02c113.21-39.66,230.28-80.67,345.49-120.83,10.13-3.53,16.57-9.31,20.88-18.74,6.74-14.73,13.95-29.55,20.93-43.89,3.08-6.32,6.15-12.63,9.19-18.96l26.33-54.72c56.43-117.27,112.85-234.54,169.26-351.81,4.93-10.26,6-17.83,3.35-23.82-2.6-5.9-8.66-10.1-19.06-13.23-28.33-8.52-53.95-16.03-80.51-21.66-17.37-3.68-35.28-5.99-52.59-8.22-7.72-1-15.43-1.99-23.13-3.11l-72.55-.03-.38.03c-6.57.9-13.16,1.69-19.76,2.48-14.05,1.68-28.59,3.41-42.69,6.3-232.73,47.7-386.82,186.31-457.98,411.98-7.78,24.66-11.63,50.89-15.35,76.26-1.71,11.68-3.49,23.76-5.62,35.49-.45,2.49-.93,4.97-1.41,7.45l-.65,3.38-.05,72.67.05.52c.22,1.17.45,2.33.69,3.5.49,2.43.97,4.87,1.36,7.32,1.39,8.78,2.72,17.57,4.06,26.36,2.89,19.06,5.88,38.77,9.42,58.07,1.84,10.04,5.2,16.18,10.59,19.32,2.62,1.52,5.64,2.29,9.2,2.29,3.94,0,8.53-.94,13.92-2.81,17.22-5.99,34.42-12.05,51.62-18.11,11.79-4.16,23.59-8.31,35.39-12.44ZM960.37,965.48c-137.32,48.46-277.06,97.36-412.21,144.66l-45.29,15.85c-2.03.71-4.08,1.28-6.26,1.89-.09.02-.17.05-.26.07-17.39-73.64-15.29-158.91,5.97-240.52,25.52-97.99,77.9-186.4,151.47-255.66,76.26-71.8,170.85-119.6,273.54-138.22,32.21-5.84,64.84-8.74,97.1-8.74,56.5,0,111.86,8.88,161.81,26.33l-47.63,99.05c-54.25,112.8-110.36,229.44-165.84,344.01-2.3,4.74-7.63,9.58-12.4,11.27Z"/>
  <path class="cls-1" d="M1505.7,1292.28c-154.18-74.27-313.6-151.06-472.76-227.12-6.87-3.28-17.15-3.83-24.44-1.3-147.05,51.08-296.41,103.43-440.86,154.05l-54.09,18.96c-9.35,3.28-15.04,7.71-17.38,13.55-2.27,5.65-1.34,12.4,2.83,20.61,52.75,103.81,123.46,184.49,210.16,239.79,85.01,54.22,188.22,85.86,306.78,94.02h.22s.22,0,.22,0c9.17-.81,18.4-1.44,28.18-2.11,21.29-1.46,43.3-2.96,65.06-6.42,173.85-27.6,310.55-117.57,406.3-267.43,5.48-8.58,7.24-15.39,5.53-21.43-1.7-6-6.71-10.82-15.75-15.17ZM1471.69,1322.45c-57.3,79.67-124.5,140.1-199.76,179.64-77.83,40.89-166.54,60.62-263.59,58.62-101.72-2.09-200.37-33.47-285.29-90.75-75.8-51.13-138.7-122.15-177.41-200.22l46.66-16.32c36.65-12.82,73.01-25.54,109.36-38.28l48.6-17.02c84.99-29.76,172.87-60.54,259.24-91,6.53-2.31,11.59-1.99,18.04,1.12,116.36,56.21,234.75,113.18,349.25,168.27l85.7,41.24c2.14,1.03,4.24,2.12,6.96,3.53.7.36,1.45.75,2.24,1.16Z"/>
  <path class="cls-1" d="M1604.85,1023.72c-.96-9.76-1.74-19.74-2.49-29.38-1.64-20.97-3.33-42.66-7.03-63.7-30.18-171.54-119.69-306.14-266.04-400.05-8.81-5.65-15.74-7.48-21.83-5.76-6.06,1.71-10.97,6.86-15.47,16.2-71.09,147.69-142.14,295.39-213.14,443.12-8.1,16.84-4.76,26.53,11.89,34.55,148.01,71.26,296.03,142.5,444.07,213.7,5.35,2.57,10.08,3.86,14.29,3.86,2.46,0,4.74-.44,6.86-1.31,5.76-2.37,10.1-7.84,13.27-16.72,21.73-60.94,33.38-124.45,35.62-194.15v-.18s-.01-.18-.01-.18ZM1535.44,1186.44l-412.31-198.39,198.32-412.07c95.94,61.96,170.18,157.45,209.24,269.22,38.98,111.54,40.64,232.58,4.75,341.23Z"/>
</svg>