<?xml version="1.0" encoding="UTF-8"?>
<svg id="Layer_1" data-name="Layer 1" xmlns="http://www.w3.org/2000/svg" viewBox="0 0 2048 2048">
  <defs>
    <style>
      .cls-1 {
        fill: #e26600;
        stroke-width: 0px;
      }
    </style>
  </defs>
  <g id="NQV1R4">
    <path class="cls-1" d="M860.73,1136.81c-.2.87-.04.44,0-.04,3.14-32.55-.2-60.73-28.73-84.89-26.27-22.26-40.78-55.08-51.15-88.39-2.5-8.03-6.36-11.13-14.78-12.92-53.65-11.57-90.89-57.71-91.45-112.79-.12-13.51-.52-27.54,2.9-40.34,2.98-11.21,8.54-25.36,17.45-30.56,20.63-12.08,14.51-26.67,11.45-43.88-13.31-74.8-16.89-149.55,11.61-222.12,40.98-104.48,143.12-174.87,255.35-175.59,45.07-.28,90.46-1.35,135.17,3.1,119.55,11.84,224.91,116.92,238.3,236.23,6.68,59.5,6.88,119.07-9.58,177.61-1.11,3.93,1.47,11.25,4.77,13.71,21.58,16.06,32.39,37.08,31.2,63.79-.72,16.37-.44,33.38-4.81,48.92-12.48,44.39-42.84,71.14-87.36,82.75-5.21,1.35-11.57,6.8-13.31,11.76-15.26,44.04-39.62,81.79-74.16,113.11-3.42,3.1-6.08,8.78-6.32,13.35-.75,16.45-.28,32.95-.28,47.02,22.61,14.74,43.28,28.97,64.82,41.81,7.79,4.65,17.65,8.23,26.59,8.31,175.78,1.51,320.05,124.52,346.96,298.35,4.81,30.92,3.58,62.87,4.09,94.35.64,36.88.16,73.76.16,110.65,0,25.83-6.99,32.91-32.63,32.91H451.41c-26.47,0-33.15-6.84-33.15-33.82,0-49.52-.08-99,0-148.52.36-177.02,122.25-320.65,297-349.66,12.88-2.15,26.19-4.33,39.07-3.34,21.66,1.67,39.27-5.21,56.2-17.96,15.38-11.61,32.23-21.22,50.2-32.91h0ZM936.24,1398.6c-27.18,20.31-53.41,40.14-79.88,59.69-20.71,15.26-37.2,9.1-42.49-15.82-4.93-23.21-9.5-46.54-14.15-69.79-9.22-45.98-18.44-91.97-27.86-138.86-5.72,0-10.45-.08-15.22,0-137.19,2.98-262.74,108.86-285.24,244.34-6.99,42.21-4.97,85.96-6.44,129.01-.75,22.61-.12,45.31-.12,68.24h139.78c0-37.76-.12-74.56.04-111.36.08-17.05,9.26-27.5,23.41-27.38,14.07.12,23.01,10.53,23.09,27.74.16,32.51.04,65.02.04,97.53v14.43c78.33,0,154.48.16,230.63-.4,3.97,0,9.86-5.05,11.49-9.1,6-14.78,10.57-30.17,15.62-45.31,19.87-59.65,39.74-119.35,58.66-176.1-11.05-16.49-20.67-30.88-31.36-46.86h0ZM1582.98,1675.81c0-48.57.44-95.58-.08-142.6-1.47-136.48-94.67-256.07-226.85-289.61-25.83-6.56-52.9-8.23-79.53-12.16-4.21,20.83-7.55,37.44-10.89,54.05-10.57,52.74-20.98,105.52-31.83,158.18-4.73,23.05-21.82,29.41-40.94,15.7-6.72-4.81-13.16-9.98-19.75-14.9-20.43-15.26-40.9-30.52-61.68-46.02-8.86,13.67-15.46,26.95-25.08,37.48-5.72,6.28-6.08,10.37-3.78,17.25,23.57,70.27,47.14,140.53,70.23,210.92,3.06,9.3,7.15,12.6,17.33,12.52,71.3-.52,142.64-.28,213.94-.28h12.6v-15.58c0-32.03-.08-64.07.04-96.06.08-17.33,8.7-27.74,22.77-28.02,14.55-.32,23.61,10.45,23.77,28.54.12,15.54,0,31.04,0,46.58v64.03h139.74ZM877.58,678.45c-11.84,39.43-31.16,71.9-59.85,98.6-2.11,1.99-3.34,5.96-3.3,8.98.56,42.64-2.15,85.69,2.9,127.81,11.8,98.92,96.77,175.39,194.98,179.8,103.17,4.61,196.05-62.75,214.61-162.79,8.82-47.53,4.89-97.45,6.48-146.29.08-2.54-1.39-5.84-3.26-7.59-28.73-26.63-48.05-59.1-59.89-98.48-97.65,24.44-195.02,24.36-292.67-.04h0ZM1024.15,369.13c-.08.79-.12,1.63-.2,2.42-16.02,0-32.03-.12-48.01,0-95.14.79-180.59,58.06-214.53,147.13-26.27,68.91-22.14,139.82-5.33,210.36,4.41,18.52,21.38,22.1,35.17,8.11,22.65-23.01,37.36-50.43,44.95-81.79,6.36-26.31,13.43-30.52,40.3-24.56,53.61,11.84,107.7,23.09,162.67,19,45.74-3.42,91.09-12.48,136.48-19.99,21.66-3.58,30.2.91,35.33,22.73,7.83,33.34,23.01,62.67,47.89,86.52,12,11.53,27.98,7.03,32.95-8.51,13.83-43.4,12.4-88.11,11.57-132.7-1.95-105.28-79.09-199.51-182.42-220.1-31.56-6.28-64.46-5.92-96.73-8.62h-.08ZM1023.91,1272.85c37.92-32.47,74.36-63.63,110.68-94.99,2.38-2.07,5.33-5.25,5.41-7.95.48-18.48.24-37,.24-57.43-78.81,37.44-155.4,36.52-232.82.32,0,19.67-.24,36.64.2,53.57.08,3.38,1.71,7.79,4.17,9.94,36.88,32.07,74.04,63.87,112.08,96.54h.04ZM1107.41,1675.81c-1.35-4.81-2.15-8.03-3.22-11.21-23.25-69.83-46.42-139.74-70.03-209.45-1.55-4.53-6.56-7.87-9.98-11.76-3.7,4.17-9.14,7.71-10.81,12.6-15.02,43.48-29.41,87.2-43.92,130.83-9.74,29.33-19.39,58.66-29.41,88.99h167.36ZM859.18,1193.01c-12.6,8.43-24.92,16.14-36.52,24.76-2.62,1.95-4.77,7.31-4.17,10.49,11.17,57.35,22.77,114.58,34.78,174.19,45.19-33.9,88.95-66.69,133.5-100.11-43.48-37.28-85.33-73.13-127.54-109.33h-.04ZM1061.19,1302.34c44.63,33.42,88.43,66.21,133.46,99.95,11.96-59.61,23.53-116.45,34.54-173.4.68-3.58-1.67-9.46-4.57-11.64-11.49-8.62-23.77-16.22-35.89-24.28-42.76,36.68-84.65,72.61-127.54,109.37h0ZM767.05,901.45v-109.1c-30.64-4.49-49.12-1.59-45.98,38.75.28,3.38-.04,6.8.16,10.13,1.63,27.66,19.43,51.43,45.82,60.17v.04ZM1280.69,902.05c3.18-1.03,5.44-1.51,7.47-2.54,31.2-15.7,49.36-59.22,36.84-92.08-2.58-6.76-11.33-13.04-18.6-15.62-7.55-2.66-16.81-.6-25.67-.6v110.8l-.04.04ZM975.54,1369.15c7.97,18.41,21.29,27.62,39.94,27.62h17.41c19.05,0,32.11-9.33,39.19-27.98-15.94-11.96-32.07-24.04-48.13-36.09-17.01,12.8-32.79,24.68-48.41,36.44h0Z"/>
  </g>
</svg>