<?xml version="1.0" encoding="UTF-8"?>
<svg id="Layer_1" data-name="Layer 1" xmlns="http://www.w3.org/2000/svg" viewBox="0 0 2048 2048">
  <defs>
    <style>
      .cls-1 {
        fill: #e26600;
        stroke-width: 0px;
      }
    </style>
  </defs>
  <g id="v5g8Dy">
    <path class="cls-1" d="M775.37,1385.51h120.36c0-4.89,0-9.5,0-14.11,0-205.32,0-410.64.01-615.96,0-29.04,13.89-49.59,38.68-56.41,6.28-1.73,13.11-1.99,19.69-2.02,46.15-.16,92.31-.11,138.46-.08,38.52.02,59.68,21.05,59.69,59.42.02,204.58.01,409.16.01,613.74,0,4.77,0,9.55,0,15.13h120.36v-13.97c0-228.58-.01-457.17.02-685.75,0-30.48,15.07-51.37,41.6-57.56,4.96-1.16,10.23-1.38,15.36-1.39,47.63-.1,95.26-.13,142.89-.03,34.56.07,56.58,22.2,56.58,57.01.05,228.95.03,457.91.03,686.86,0,4.74,0,9.47,0,15.67,12.2,0,23.52-.14,34.85.04,13.5.2,20.92,6.49,20.98,17.43.06,11.03-7.42,17.54-20.68,17.95-2.21.07-4.43.02-6.65.02-355.57,0-711.14,0-1066.72,0-3.32,0-6.66.18-9.96-.1-11.4-.95-18.21-8.08-17.84-18.46.35-9.94,6.98-16.38,18.22-16.73,12.09-.37,24.2-.08,37.59-.08,0-5.49,0-9.79,0-14.1,0-163.59,0-327.18,0-490.77,0-40.68,20.69-61.48,61.21-61.49,45.42-.02,90.83-.06,136.25.01,37.26.06,58.99,21.9,59,59.42.05,163.59.02,327.17.02,490.76,0,4.76,0,9.53,0,15.56ZM1493.21,1385.51c.2-3.44.44-5.64.44-7.83.02-231.14.03-462.27,0-693.41,0-16.37-6.2-22.29-23.05-22.31-45.41-.05-90.82-.02-136.23-.02-21.17,0-26.27,5-26.27,25.93-.01,228.55,0,457.1.02,685.66,0,3.89.36,7.79.56,11.98h184.54ZM1116.34,1385.51c.21-3.8.47-6.36.47-8.91.02-207.15.03-414.31,0-621.46,0-16.8-5.89-22.7-22.61-22.73-46.15-.08-92.3-.05-138.46-.02-19.43.01-24.55,5.29-24.55,25.24-.01,205.31,0,410.62.02,615.93,0,3.89.33,7.78.52,11.95h184.61ZM739.34,1385.5c.23-4.24.56-7.49.57-10.74.03-164.99.03-329.99,0-494.98,0-18.7-5.87-24.54-24.53-24.56-45.4-.05-90.79-.04-136.19,0-19.35.02-24.83,5.62-24.84,25.21-.01,164.26,0,328.51,0,492.77v12.3h184.99Z"/>
  </g>
</svg>