<?xml version="1.0" encoding="UTF-8"?>
<svg id="Layer_1" data-name="Layer 1" xmlns="http://www.w3.org/2000/svg" viewBox="0 0 2048 2048">
  <defs>
    <style>
      .cls-1 {
        fill: #e26600;
        stroke-width: 0px;
      }
    </style>
  </defs>
  <g id="ffUrP4">
    <g>
      <path class="cls-1" d="M1281.25,1223.51c15.06-10.34,29.15-19.51,42.7-29.46,12.54-9.21,24.19-9.72,36.81,0,20.63,15.83,41.81,30.93,62.63,46.53,14.52,10.88,16.57,17.92,10.57,34.8-5.81,16.3-11.85,32.52-18.43,50.63,16.49,3.17,32.28,6.23,48.04,9.21,23.07,4.34,27.33,8.67,30.23,31.51,3.29,25.82,6.27,51.64,9.79,77.42,2.13,15.52-3.29,25.82-18,32.05-15.87,6.7-31.24,14.52-48.39,22.53,10.64,15.41,20.32,30.08,30.73,44.24,8.75,11.92,8.13,22.8-.85,34.18-17.3,21.91-34.41,44.01-51.44,66.15-8.44,10.99-18.62,14.21-31.74,9.02-16.03-6.35-32.24-12.19-49.74-18.77-3.41,18.08-6.5,34.95-9.72,51.79-3.56,18.62-8.83,23.77-27.17,26.13-27.21,3.52-54.5,6.54-81.67,10.41-15.17,2.17-24.93-3.41-31.04-17.23-7.16-16.14-14.79-32.05-22.8-49.28-15.68,10.76-30.42,20.55-44.82,30.85-11.77,8.4-22.72,8.48-34.26-.62-21.91-17.34-44.01-34.41-66.23-51.33-11.65-8.86-14.48-19.39-8.75-32.94,6.54-15.41,12.31-31.16,19.08-48.42-18.04-3.48-34.84-6.7-51.68-9.99-18.7-3.64-23.88-8.79-26.28-27.06-3.6-27.21-6.74-54.5-10.34-81.71-1.97-14.9,3.29-25.04,17.38-31.01,13.59-5.73,26.86-12.31,40.22-19.7-14.36,3.64-24.7-2.71-35.07-11.07-20.21-16.3-41.11-31.78-63.29-48.81-16.64,21.56-33.29,43.2-49.97,64.8-6.19,8.01-12.15,16.18-18.85,23.77-22.84,25.82-60.42,29.34-87.21,8.48-27.29-21.25-33.06-59.26-12.66-87.79,10.64-14.9,22.26-29.07,33.48-43.51,11.23-14.44,22.57-28.76,35.3-44.98-22.64-17.42-44.48-34.64-66.73-51.17-11.77-8.71-17.61-18.85-11.88-34.99-30.19-2.13-59.69-4.3-89.18-6.27-52.3-3.48-104.67-6.27-156.85-10.84-8.55-.74-20.01-7.55-23.5-14.75-3.1-6.39.39-19.24,5.42-25.82,69.75-90.97,140.13-181.47,210.65-271.81,27.87-35.69,69.71-46.02,111.17-27.87,26.44,11.57,52.53,24.04,78.77,36.04,4.72,2.17,9.56,4.06,15.21,6.43,25.04-41.5,50.36-81.87,74.09-123.13,42.04-73.16,101.65-130.45,165.32-183.63,129.36-107.96,277.77-176.36,443.06-208.33,3.79-.74,7.59-1.35,11.38-1.94,19.97-2.86,30.31,4.92,31.82,25.2,5.26,70.29,3.56,140.43-6.43,210.26-23.34,163.27-82.64,312.26-182.12,443.91-27.68,36.58-63.17,67.28-95.26,100.49-17.38,18-34.95,35.88-52.84,53.42-5.3,5.23-6.15,9.21-2.44,16.03,8.24,15.1,15.29,30.85,23.61,48l.16-.04ZM1013.86,1250.45c2.79-3.25,4.68-5.38,6.46-7.59,17.84-22.22,20.36-22.88,47.73-12.97,13.82,4.99,27.64,9.91,42.31,15.17,3.29-19.93,6.23-37.93,9.25-55.9,2.09-12.43,9.1-19.7,21.91-21.17,11.96-1.35,24.19-1.86,35.73-4.84,8.71-2.25,18.12-6.23,24.54-12.27,22.72-21.48,44.36-44.13,66.27-66.46,33.75-34.33,70.99-65.92,100.41-103.66,83.57-107.18,137.03-228.96,164.16-362.31,1.82-8.98-.5-12.74-8.28-16.53-71.53-34.84-133.2-82.6-184.49-143.42-6.43-7.63-11.19-7.28-19.39-3.33-73.24,35.34-140.51,79.66-201.28,133.62-44.71,39.68-88.57,80.71-120.04,132.07-69.17,112.87-136.87,226.68-205.12,340.13-2.63,4.34-4.99,8.83-6.62,11.69,30.77,23.88,60,46.57,91.51,71.03,1.82-3.33,3.64-7.9,6.54-11.65,29.73-38.52,59.73-76.8,89.38-115.35,11.03-14.36,24.7-24.19,42.62-27.44,25.74-4.65,51.33,6.39,65.11,27.83,14.83,23.07,14.17,50.86-3.6,74.28-30.54,40.3-61.86,80.01-92.82,119.96-2.83,3.68-5.42,7.55-7.2,10.03,11.88,9.87,22.92,19.04,34.95,29.07h-.04ZM1387.2,1271.31c-12.7-9.25-25.47-17.88-37.43-27.52-6.43-5.15-10.95-5.23-17.5-.27-14.55,11.03-29.5,21.64-44.82,31.55-16.33,10.57-30.62,6.12-39.17-11.23-3.17-6.46-5.88-13.16-9.06-19.63-6.58-13.32-10.18-32.36-20.9-38.13-10.84-5.85-28.76,1.55-43.55,3.14-.97.12-2.24-.12-2.83.43-3.72,3.41-9.48,6.43-10.49,10.53-4.41,18.7-7.16,37.78-11.07,56.59-3.79,18.27-16.8,25.63-34.33,19.93-6.85-2.25-13.55-4.95-20.32-7.47-29.88-11.02-53.84-3.25-71.88,23.3-2.13,3.17-2.24,10.1-.19,13.32,9.72,15.48,20.59,30.19,30.85,45.33,13.2,19.51,9.52,32.36-12.04,42.46-19.01,8.9-38.09,17.61-57.33,26.52,2.09,16.53,4.37,31.78,5.73,47.07.7,7.78,4.14,10.34,11.57,11.46,18.04,2.79,35.96,6.5,53.84,10.06,21.21,4.22,28.26,16.37,21.17,36.7-7.01,19.93-14.4,39.75-22.57,62.2,12.58,9.1,25.78,17.88,38.09,27.79,6.31,5.07,10.53,4.03,16.3-.19,14.71-10.84,29.65-21.41,44.75-31.7,17.07-11.61,30.7-7.9,39.79,10.88,8.17,16.88,15.6,34.1,24,50.86,1.74,3.48,6.5,8.09,9.56,7.86,17.07-1.28,34.06-3.87,51.25-6,3.68-20.48,7.08-39.37,10.45-58.3,5.11-28.33,15.37-34.33,42-24.54,15.79,5.81,31.51,11.92,47.5,17.15,3.68,1.2,10.14.89,12.27-1.47,11.46-12.81,21.91-26.44,32.52-39.56-13.04-18.97-24.85-35.92-36.39-53.07-12.43-18.5-8.63-32.17,11.61-41.81,16.49-7.86,33.29-15.06,49.51-23.46,3.56-1.82,7.47-7.63,7.2-11.34-1.08-16.26-3.68-32.4-5.77-49.2-21.6-3.91-42.39-7.47-63.1-11.46-21.99-4.22-29.19-16.72-21.79-37.59,6.93-19.47,14.24-38.82,22.49-61.31l.08.12ZM845.74,884.92c-1.28-1.35-1.78-2.32-2.55-2.71-25.74-12-51.48-23.96-77.26-35.84-30-13.82-48.11-9.6-68.2,16.14-58.1,74.4-116.13,148.87-174.11,223.35-2.52,3.21-4.53,6.81-7.78,11.73,80.94,5.54,159.79,10.95,238.64,16.34.27-1.39.5-2.83.77-4.22-2.4-2.21-4.68-4.53-7.2-6.58-18.54-15.02-20.05-22.88-8.05-42.89,6.7-11.15,13.43-22.26,20.17-33.41,28.57-47.38,57.13-94.76,85.58-141.94v.04ZM1541.38,557.52c9.56-32.44,15.06-156.96,6.74-183.25-56.9,17.53-113.84,35.11-171.87,52.99,27.79,42.5,120.65,114.77,165.13,130.22v.04ZM1049.24,1046.3c-8.83-4.92-15.29-10.95-22.33-11.69-5.07-.5-12.39,4.88-16.1,9.68-80.17,103.39-159.98,207.05-239.84,310.67-1.74,2.28-3.56,4.61-4.72,7.2-4.22,9.41-1.9,18.66,7.08,21.87,6.12,2.17,15.02-.7,21.64-3.6,4.22-1.86,6.54-8.05,9.75-12.23,77.11-99.67,154.29-199.31,231.28-299.06,4.49-5.81,7.47-12.77,13.28-22.84h-.04ZM844.7,1181.2c-17.61-13.66-34.84-27.02-53.07-41.15-5.77,8.05-12.04,16.84-19.32,27.02,18.7,13.08,36.23,25.35,53.92,37.74,5.69-7.28,12.35-15.79,18.5-23.65l-.04.04ZM964.15,1316.25c6.58-9.91,12.81-19.28,19.16-28.84-12.04-9.17-23.69-18.04-36.35-27.68-6.23,8.79-12.5,17.57-18.97,26.71,12.89,10.61,24.66,20.32,36.15,29.81h0Z"/>
      <path class="cls-1" d="M1107.1,790.28c-9.02-74.48,44.13-141.94,118.8-150.89,74.63-8.94,142.06,43.86,151.31,118.45,9.29,75.02-44.01,142.64-119.61,151.74-74.2,8.94-141.44-44.36-150.5-119.34v.04ZM1153.36,786.21c6.31,48.81,50.48,82.68,99.91,76.6,49.97-6.15,84.5-50.4,78.08-100.06-6.39-49.39-51.13-83.77-100.72-77.38-49.35,6.39-83.69,51.17-77.26,100.8v.04Z"/>
      <path class="cls-1" d="M1236.16,1553.57c-63.87,7.63-120.77-37.35-128.16-101.26-7.28-62.98,37.39-120.15,100.18-128.2,62.79-8.01,121.62,37.93,129.17,100.91,7.63,63.71-37.43,120.93-101.18,128.51v.04ZM1287.8,1431.99c-4.45-37.47-37.32-64.14-73.55-59.65-36.08,4.49-63.17,39.64-58.91,76.49,4.26,37.28,37.08,62.79,74.44,57.87,37.51-4.92,62.48-37.08,58.02-74.71h0Z"/>
    </g>
  </g>
</svg>