<?xml version="1.0" encoding="UTF-8"?>
<svg id="Layer_1" data-name="Layer 1" xmlns="http://www.w3.org/2000/svg" viewBox="0 0 2048 2048">
  <defs>
    <style>
      .cls-1 {
        fill: #e26600;
        stroke-width: 0px;
      }
    </style>
  </defs>
  <g id="p69qIF">
    <g>
      <path class="cls-1" d="M1588.24,950.71c-12.92-119.73-108.47-220.01-227.61-237.8-16.46-2.47-33.18-3.21-49.57-4.72-.44-1.25-1-1.99-1-2.77-.15-27.02-.18-54.03-.3-81.05-.11-29.9-14.8-44.81-44.25-44.99-21.74-.15-18.16,1.33-18.53-18.27-.48-24.99-15.65-40.49-40.6-41.34-6.79-.22-13.62-.04-21.11-.04-.3-5.57-.63-9.6-.66-13.58-.26-35.58-13.43-48.61-49.2-48.61-210-.04-419.97-.04-629.98,0-33.66,0-47.46,13.88-47.46,47.83v915.02c0,3.28-.07,6.53.07,9.82.92,21.37,16.05,36.8,37.46,37.87,7.68.41,15.39.07,25.43.07-7.09,48.2,15.17,68.09,61.16,62.78.37,5.2,1.07,8.45.74,11.59-3.25,31.33,19.01,48.09,47.8,47.94,166.6-.81,333.2-.48,499.8-.22,11.04.04,19.34-3.03,27.16-10.92,46.73-47.06,93.71-93.86,140.95-140.4,7.9-7.75,11.52-15.83,11.4-26.98-.44-47.09-.18-94.15-.18-141.25v-12.7c20.56-2.33,40.19-2.14,58.42-7.16,27.39-7.57,54.03-18.16,80.53-28.64,10-3.95,12.29-14.06,7.27-22.51-5.2-8.71-12.7-11.07-22.03-6.75-2.58,1.18-5.02,2.73-7.64,3.91-90.42,42.44-176.12,34.14-257.06-24.17-3.43-2.47-6.42-5.57-9.63-8.38,1.66-2.18,2.29-3.25,3.14-4.1,50.93-50.97,101.98-101.83,152.65-153.02,5.91-5.98,11.29-4.61,17.75-2.92,58.9,15.65,117.81,31.22,176.71,46.87,11.04,2.92,22,5.94,35.25,9.52-7.68,15.8-13.88,30.89-22.11,44.84-7.42,12.62-17.01,23.95-25.69,35.87-6.09,8.38-5.17,16.35,2.55,22.81,7.2,6.02,15.17,6.02,22.07-.89,4.06-4.02,7.71-8.49,11.15-13.07,44.66-59.24,63.11-125.6,55.14-199.52ZM520.2,564.22c-.11,81.05-.04,162.14-.04,243.19v625.51c-1.73,1.11-2.4,1.85-3.1,1.88q-25.72,1.77-25.76-23.73c0-300.5,0-601.01.04-901.51q0-18.68,18.97-18.71h616.47q26.09,0,23.62,28.9h-15.02c-108.55,0-217.05-.04-325.56.04v-.11h-193.8c-17.27,0-34.58.04-51.86.11-28.31.15-43.88,15.87-43.96,44.44ZM582.91,627.48v868.66q-29.08,3.58-29.08-22.74v-900.29q0-19.71,19.12-19.71h202.22c1.11,0,2.18-.04,3.28-.04h31.37c127.92.04,255.81.04,383.73.04,22.11,0,22.85.92,19.12,25.95h-581.48c-34.91,0-48.28,13.32-48.28,48.13ZM1156.38,1525.48c0-25.02-.22-53.48.41-81.9.07-2.55,5.61-7.12,8.71-7.16,27.68-.59,55.4-.33,82.82-.33-31.04,30.19-61.78,60.09-91.94,89.39ZM1262.56,1251.07c4.02.81,8.01,1.62,13.07,2.66v148.52c-4.5.22-8.82.59-13.1.59-32.37.04-64.7-.07-97.03.07-27.35.11-42.22,15.21-42.33,42.81-.15,33.14-.37,66.32.15,99.47.15,9.3-2.77,11.74-11.85,11.74-160.44-.22-320.88-.26-481.31.04-10.78,0-14.1-3.47-14.1-14.1.22-305.37.22-610.79-.04-916.16,0-11.44,3.76-14.47,14.95-14.47,209.97.3,419.94.3,629.9,0,11.55,0,15.87,2.88,15.43,15.06-.85,24.95-.55,49.94-.07,74.89.15,7.79-2.47,10.19-10,11.74-211.15,42.74-295.22,290.13-153.28,451.53,39.9,45.4,90.24,73.7,149.62,85.63ZM1307.04,963.48c-2.14,4.76-4.69,9.71-8.3,13.36-52.22,52.56-104.67,104.89-157.08,157.26-1.7,1.7-3.62,3.14-6.13,5.28-62.89-67.06-85.81-190.92-18.27-291.09,67.76-100.46,192.33-126.37,281.64-90.31-1.59,3.95-2.99,7.97-4.72,11.88-29.01,64.55-57.98,129.1-87.14,193.62ZM1551.37,1027.74c-70.05-18.56-140.18-37.17-211.52-56.06,30.23-67.21,59.86-133.13,89.5-198.97,79.68,22.55,149.22,167.15,122.02,255.03Z"/>
      <path class="cls-1" d="M738.77,1413.03c0-9.99,0-19.7,0-29.42,0-27.01-.04-54.01.01-81.02.04-19.98,4.79-24.8,24.37-24.84,19.11-.04,38.22,0,58.88,0,0-6.23,0-11.01,0-15.79,0-27.01-.15-54.01.08-81.02.13-15.25,5.72-20.7,20.85-20.79,24.95-.14,49.91-.17,74.87,0,14.57.1,19.93,5.43,20.2,20.07.27,15.13.39,30.29-.04,45.41-.21,7.53,2.5,10.04,9.94,9.86,17.17-.4,34.36-.24,51.54-.08,16.97.16,21.97,5.06,22.01,22.11.13,46.64.05,93.29.06,139.94,0,4.86,0,9.73,0,15.31,4.06.44,7.19.77,10.32,1.13,10.35,1.19,17.09,6.38,16.63,17.37-.47,11.04-7.79,15.48-18.1,15.9-2.45.1-4.91.06-7.36.06-95.32,0-190.64,0-285.97,0-3.27,0-6.57.11-9.8-.29-9.39-1.16-15.17-6.47-15.41-16.02-.24-9.59,5.42-15.07,14.66-16.76,3.56-.65,7.22-.7,12.28-1.15ZM856.25,1194.42v218.49h47.81v-218.49h-47.81ZM987.61,1268.49c-13.24,0-25.06.54-36.8-.17-9.59-.58-12.71,2.63-12.6,12.39.47,40.83.18,81.67.25,122.5,0,3.12.61,6.24.98,9.67h48.18v-144.38ZM773.23,1311.87v100.88h48.07v-100.88h-48.07Z"/>
      <path class="cls-1" d="M889.8,730.92c51.93,0,103.87-.14,155.8.18,5.82.04,12.74,1.09,17.21,4.34,9.79,7.13,6.03,23.99-5.67,27.5-4.2,1.26-8.87,1.25-13.33,1.25-103.05.06-206.1.05-309.15.05-1.64,0-3.27.04-4.91-.04-12.29-.59-18.67-6.13-18.87-16.35-.21-10.66,6.42-16.82,19.45-16.86,53.16-.16,106.32-.07,159.48-.08Z"/>
      <path class="cls-1" d="M852.34,852.58c40.48,0,80.96-.4,121.42.45,6.04.13,14.1,4.84,17.24,9.91,2.45,3.96.77,13.89-2.79,17.29-4.24,4.05-12.43,5.43-18.91,5.46-71.96.36-143.92.23-215.88.23-6.95,0-13.9.06-20.85-.02-15.06-.17-21.93-5.61-21.67-17.06.24-10.92,6.94-16.19,21.24-16.22,40.07-.08,80.14-.03,120.21-.02Z"/>
      <path class="cls-1" d="M833.74,1007.64c-34.32,0-68.65-.03-102.97,0-10.64.01-18.8-3.46-19.72-15.34-.72-9.34,3.57-15.79,13.36-17.41,2.8-.46,5.7-.43,8.55-.43,67.42-.02,134.85-.08,202.27.1,5.15.01,12.34-.04,14.97,3.03,3.93,4.58,6.74,12.08,6.27,18.04-.72,9.15-8.83,11.93-17.3,11.95-27.79.08-55.57.05-83.36.06-7.36,0-14.71,0-22.07,0Z"/>
    </g>
  </g>
</svg>