<?xml version="1.0" encoding="UTF-8"?>
<svg id="Layer_1" data-name="Layer 1" xmlns="http://www.w3.org/2000/svg" viewBox="0 0 2048 2048">
  <defs>
    <style>
      .cls-1 {
        fill: #e26600;
        stroke-width: 0px;
      }
    </style>
  </defs>
  <g id="s1Rqlj">
    <g>
      <path class="cls-1" d="M1336.56,1641.12c-2.57,4.01-8.5,8.02-18.94,12.78h-11c-17.51-7.3-21.31-19.49-21.72-37.72-1.3-58.07-25.73-113.43-68.82-155.84-42.99-42.31-98.7-66.05-156.87-66.8-5-.03-10.04-.17-15.04-.27-8.26-.14-16.82-.34-25.35-.34-22.06,0-48.3,1.03-75.37,8.56-99.18,27.65-169.44,118.09-170.81,219.97-.24,16.72-6.34,26.1-21.55,32.44h-10.96c-20.25-9.08-22.37-14.05-21.86-39.02,1.34-62.83,26-125.38,69.54-176.15,43.64-50.91,101.51-84.31,162.97-94.11,32.92-5.24,61.7-7.78,88.01-7.78,45.91,0,85.82,7.74,121.99,23.67,54.98,24.25,97.88,57.93,127.44,100.14,29.5,42.07,46.66,93.97,51.08,154.23,1.3,17.68-.96,23.43-2.74,26.24Z"/>
      <path class="cls-1" d="M1589.18,1286.14c-9.73,57.14-46.87,96.92-101.85,109.11-9.35,2.06-18.7,3.12-27.82,3.12-20.18,0-40.32-5.17-59.81-15.35-15.35-8.05-20.86-22.99-13.7-37.17,4.76-9.46,13.09-14.63,23.43-14.63,4.9,0,9.93,1.16,15.01,3.53,12.44,5.72,25.08,8.6,37.58,8.6,28.3,0,52.96-15.28,65.98-40.9,18.29-36.07,5.04-77.83-31.59-99.28-32.2-18.84-51.46-43.3-58.86-74.79-3.63-15.42-4.86-32.41-3.43-47.79,3.97-42.55,3.73-81.26-.72-118.36-6.2-51.56,13.84-90.68,63.14-123.16,31.41-20.69,45.36-52.04,37.27-83.83-8.53-33.61-38.57-57.11-73.04-57.11-10.21,0-20.25,2.06-29.84,6.06-4.39,1.85-8.67,3.73-12.85,5.58-7.37,3.29-14.35,6.37-21.34,8.94-13.87,5.1-27.68,7.71-40.97,7.71-23.5,0-46.49-8.09-68.41-24.05-36.01-26.21-74.34-48.58-117.23-68.34-45.73-21.07-69-56.94-71.15-109.59-1.82-44.54-32.96-76.84-74.03-76.84-8.87,0-17.81,1.54-26.62,4.66-30.08,10.59-48.06,35.05-49.26,67.11-2.23,58.65-30.11,97.4-87.73,121.89-30.8,13.12-61.77,31.07-89.62,51.9-28.64,21.48-56.15,31.89-84.1,31.89-21.21,0-42.55-5.89-65.23-18.02-11.03-5.89-23.4-9.01-35.7-9.01-26.65,0-51.59,14.49-65.09,37.82-20.45,35.32-8.63,79.86,26.96,101.34,35.05,21.17,55.19,48.95,61.6,84.93,1.82,10.11,1.44,21.55,1.06,33.71-.17,5.38-.34,11-.31,16.65,0,10.55-.24,21.48-.48,32.03-.55,22.95-1.1,46.69,1.03,70.5,5.21,58.48-14.08,99.21-60.71,128.3-37.24,23.26-49.74,66.19-29.67,102.09,13.36,23.84,37.48,38.06,64.51,38.06,12.47,0,25.04-2.88,37.34-8.6,5.07-2.4,10.21-3.6,15.18-3.6,10.52,0,19.15,5.48,23.74,15.01,6.75,14.05.79,28.98-14.83,37.2-18.33,9.59-38.99,14.7-59.75,14.7-46.66,0-89.76-24.7-112.5-64.47-16.85-29.43-21.72-63.41-13.7-95.68,8.02-32.31,28.23-59.92,56.94-77.8,30.73-19.12,43.85-46.04,38.95-79.99-5.45-37.89-5.28-77.77.62-121.96,4.18-31.38-8.29-56.94-36.04-73.83-23.84-14.53-42.21-35.18-53.07-59.81-10.89-24.56-13.81-51.94-8.5-79.14,9.9-50.5,53.07-90.65,107.47-99.93,4.25-.72,9.01-1.03,14.08-1.37,2.26-.17,4.56-.34,6.85-.51,22.16.48,41.73,5.58,59.71,15.59,13.22,7.33,26.45,11.07,39.36,11.07,16.92,0,33.26-6.3,48.65-18.67,32.13-25.93,68.52-47,108.12-62.59,32.03-12.61,49.09-36.62,50.74-71.39,3.39-71.6,57.59-123.57,128.84-123.57h.1c34.57.03,66.43,12.37,89.79,34.7,23.43,22.44,37.31,54.09,39.02,89.14,1.75,35.22,18.98,59.57,51.25,72.39,37.86,15.04,74.17,36.35,107.95,63.31,14.56,11.65,30.22,17.57,46.52,17.57,12.68,0,25.35-3.46,38.71-10.59,21.69-11.54,43.3-17.37,64.27-17.37,22.68,0,45.32,6.85,67.32,20.42,42.89,26.41,63.41,64.88,60.91,114.32-2.33,46.87-23.02,82.12-61.42,104.86-31.96,18.88-45.49,46.49-40.25,82.01,5.52,37.34,5.58,76.16.17,115.38-4.62,33.68,8.6,60.12,39.29,78.62,44.57,26.93,69.99,79.24,61.77,127.27Z"/>
      <path class="cls-1" d="M1171.74,875.18c-38.44-38.61-89.21-59.88-142.96-59.92h-.14c-117.88,0-206.99,88.42-207.3,205.65-.14,56.39,20.9,108.5,59.2,146.66,38.33,38.23,90.89,59.4,147.93,59.57h.62c109.69,0,202.77-93.46,203.25-204.11.24-55.84-21.31-108.36-60.6-147.86ZM1133.82,1127.94c-14.32,14.49-30.87,25.73-48.78,33.33-17.95,7.61-37.27,11.61-57.14,11.61h-.07c-41.83,0-80.61-15.83-109.18-44.6-28.33-28.5-43.82-66.87-43.54-108.08.24-41.25,16-79.38,44.4-107.36,28.3-27.92,66.73-43.27,108.22-43.27h.34c39.84.07,77.49,15.96,105.96,44.78,28.4,28.74,44.06,66.67,44.02,106.78,0,40.01-15.69,77.94-44.23,106.82Z"/>
    </g>
  </g>
</svg>