<?xml version="1.0" encoding="UTF-8"?>
<svg id="Layer_1" data-name="Layer 1" xmlns="http://www.w3.org/2000/svg" viewBox="0 0 2048 2048">
  <defs>
    <style>
      .cls-1 {
        fill: #e26600;
        stroke-width: 0px;
      }
    </style>
  </defs>
  <g id="_4mKhnp" data-name="4mKhnp">
    <g>
      <path class="cls-1" d="M1608.54,948.85h-14.29c-7.78,0-14.08-6.31-14.08-14.08v-504.61c0-7.78-6.31-14.08-14.08-14.08H482.39c-7.78,0-14.08,6.31-14.08,14.08v504.62c0,7.78-6.31,14.08-14.08,14.08h-14.74c-7.78,0-14.08-6.31-14.08-14.08v-.05c0-177.23,0-354.46,0-531.69,0-24.53,6.17-30.67,30.76-30.67,378.56,0,757.13,0,1135.69,0,24.55,0,30.75,6.19,30.76,30.71,0,177.23,0,354.46,0,531.69h0c0,7.78-6.31,14.08-14.08,14.08Z"/>
      <path class="cls-1" d="M1441.68,1167.25c-10.07,20-20.17,36.67-27.04,54.57-8.25,21.52-21.84,28.37-44.93,27.4-47.1-1.99-94.24-2.82-141.32-.58-41.47,1.97-73.09-24-75.96-61.29-2.9-37.74,22.25-66.92,62.52-72.7,28.19-4.04,56.3-8.7,84.56-12.12,8.69-1.05,13.18-5.04,17.46-11.93,25.77-41.6,50.98-83.58,78.2-124.23,23.83-35.59,59-50.89,101.45-46.06,39.8,4.53,68.03,26.59,85.21,62.64,3.82,8.01,6.89,16.39,10.12,24.66,24.87,63.75,50.8,127.11,74.14,191.41,15.11,41.62,20.1,85.62,20.58,129.94.2,18.92-7.5,26.6-26.69,26.64-53.44.09-106.87.08-160.31,0-17.62-.03-23.83-5.22-27.06-22.68-9.71-52.47-19.28-104.96-28.92-157.44-.29-1.59-.75-3.15-1.99-8.24ZM1647.02,1312.44c-8.04-37.03-12.19-73.25-23.97-106.8-23.24-66.18-50.89-130.81-76.35-196.23-10.18-26.17-27.27-43.75-56.08-46.69-29.89-3.04-50.76,10.95-66.06,36.02-26.19,42.89-53.31,85.21-79.73,127.95-5.84,9.44-13.23,14.43-24.49,15.86-33.08,4.22-66.07,9.19-99.03,14.27-17.82,2.75-26.97,12.39-26.1,26.2.92,14.57,11.82,22.93,30.32,22.96,45.85.06,91.7-.19,137.55.22,8.25.07,12.66-2.4,16.31-9.91,16.5-33.99,33.79-67.59,50.43-101.5,5.14-10.47,11.79-18.36,24.37-16.65,12.39,1.68,17.26,10.43,19.32,22.2,7.58,43.35,15.68,86.6,23.62,129.89,5.03,27.42,10.11,54.83,15.16,82.21h134.75Z"/>
      <path class="cls-1" d="M605.13,1171.15c-9.93,54.22-19.81,108.44-29.84,162.65-3.01,16.29-9.67,21.78-26.49,21.81-53.85.09-107.71.11-161.56,0-14.29-.03-26-11.62-25.9-25.91.43-59.96,12.7-117.54,35.04-173.08,22.06-54.84,44.16-109.66,65.96-164.6,16.33-41.18,45.56-66.86,89.89-71.68,46.59-5.06,81.89,14.73,106.49,54.33,23.94,38.54,48.18,76.9,72.01,115.51,4.48,7.26,9.26,11.34,18.57,12.4,29.16,3.31,58.17,8.01,87.21,12.4,36.96,5.59,61.72,35.86,59.08,71.9-2.57,35.14-31.45,61.63-68.26,61.83-53.87.28-107.75-.14-161.62.24-13.37.09-21.43-5.44-27.04-17.31-9.69-20.52-20.28-40.62-30.5-60.89l-3.02.43ZM404.71,1312.87c42.41,0,83.31.22,124.19-.45,2.98-.05,7.76-6.12,8.49-9.99,12.71-67.26,25.07-134.59,37.11-201.98,2.1-11.75,6.82-20.56,19.2-22.31,12.57-1.77,19.3,6.06,24.45,16.53,16.67,33.91,33.84,67.57,50.51,101.47,3.52,7.16,7.09,10.83,17.27,9.98,44.78-3.74,89.71-4.63,134.44-.4,18.92,1.79,31.42-7.52,32.43-22.6.88-13.12-7.88-23.36-23.37-25.77-33.83-5.27-67.69-10.45-101.65-14.77-11.89-1.51-19.17-7.14-25.21-16.96-26.59-43.16-53.74-85.99-80.47-129.07-14.95-24.1-35.95-36.76-64.59-33.85-27.53,2.8-44.98,18.85-55.04,44.16-22.47,56.57-45.32,112.99-67.88,169.52-17.26,43.27-27.52,88.11-29.88,136.47Z"/>
      <path class="cls-1" d="M1070.22,741.53c73.75-73.8,146.18-146.28,218.87-219.01h-64.36c-4.03,0-7.3-3.27-7.3-7.3v-28.67c0-4.03,3.25-7.3,7.28-7.3,7.13,0,14.32,0,21.5,0,31.17,0,62.34-.09,93.51.03,18.45.07,26.25,7.62,26.31,25.71.14,38.44.06,76.88.05,115.88,0,4.03-3.27,7.31-7.3,7.31h-27.75c-4.03,0-7.3-3.27-7.3-7.3v-51.34c0-6.48-7.83-9.77-12.42-5.2-.03.03-.07.07-.1.1-74.01,73.95-148,147.94-222,221.9-18.27,18.26-26.51,18.34-44.43.41-33.22-33.23-66.42-66.49-100.01-100.12-2.85-2.86-7.49-2.86-10.34,0l-123.88,124.08c-2.88,2.88-7.57,2.84-10.41-.08-7.31-7.52-13.89-14.29-20.63-21.23-2.7-2.78-2.75-7.17-.14-10.04,1.29-1.41,2.6-2.82,3.97-4.19,44.68-44.73,89.38-89.44,134.11-134.12,16.68-16.67,25.56-16.61,42.54.37,33.47,33.48,66.88,67.01,99.91,100.11,2.85,2.86,7.48,2.84,10.33-.01Z"/>
      <path class="cls-1" d="M821.36,1675.63h-22.24c-5.57,0-10.3-4.45-10.23-10.02,0-.03,0-.07,0-.1.63-38.68-1.88-77.76,2.88-115.93,6.24-50.12,51.08-86.48,101.74-86.84,86.82-.61,173.66-.65,260.48-.01,57.84.43,104,46.9,105.01,104.77.57,32.25.2,64.52.13,97.53-.01,5.65-4.58,10.23-10.23,10.23h-22.16c-5.57,0-10.06-4.45-10.24-10.02-.03-.9-.05-1.8-.05-2.7-.06-31.16.3-62.33-.15-93.49-.52-35.86-27.96-63.51-63.8-63.66-85.94-.35-171.88-.39-257.81.04-34.99.18-62.42,28.06-62.96,63.11-.48,31.16-.12,62.33-.13,93.49,0,1.12,0,2.24,0,3.36,0,5.65-4.58,10.23-10.23,10.23Z"/>
      <path class="cls-1" d="M1152.27,1302.73c3.19,73.52-45.77,121.08-95.84,134.2-78.76,20.63-157.54-37.96-160.71-119.32-1.57-40.25,3.37-78.14,31.26-109.79,35.82-40.64,90.53-54.96,140.65-36.74,50.56,18.37,83.65,65.15,84.61,119.64.07,4,0,8.01.03,12.01ZM1109.51,1302.72c0-3.56.05-7.11,0-10.67-.72-45.74-34.35-82.44-78.63-85.82-44.7-3.41-83.94,27.09-91.06,72.19-2.19,13.89-2,28.46-.8,42.54,4.3,50.67,53.01,86.07,102.62,75.35,43.14-9.33,67.89-43.44,67.88-93.59Z"/>
      <path class="cls-1" d="M1314.16,1034.93c-.13.05-.26.1-.39.15-10.83,4.22-23.04-1.11-27.32-11.92-5.75-14.51-11.39-28.77-16.68-43.15-2.54-6.89-5.93-9.32-13.46-9.31-154.97.24-309.93.25-464.9-.02-7.8-.01-10.85,2.92-13.23,9.62-2.52,7.12-5.27,14.16-8.15,21.39-4.3,10.8-16.5,16.12-27.33,11.89-.17-.07-.34-.13-.52-.2-10.82-4.22-16.2-16.38-12.06-27.23,6.12-16.04,12.1-31.66,19.55-46.54,2.99-5.98,14.26-10.71,21.9-10.97,34.25-1.16,68.56-.51,102.85-.51,132.26,0,264.51,0,396.77,0,21.39,0,25,2.42,32.7,22.12,7.39,18.89,14.73,37.8,22.31,57.31,4.23,10.88-1.16,23.13-12.03,27.36Z"/>
      <path class="cls-1" d="M724.66,801.05c-.69,58.92-49.24,106.23-108.46,105.68-58.7-.55-106-49.42-105.26-108.77.73-58.64,49.76-105.8,109.08-104.93,58.12.86,105.33,49.58,104.65,108.02ZM681.85,797.53c-1-33.42-28.47-60.82-61.9-61.71-39.11-1.04-70.67,32.73-65.69,72.33,3.6,28.54,26.44,51.46,54.96,55.19,39.77,5.21,73.79-26.54,72.62-65.81Z"/>
      <path class="cls-1" d="M1429.71,906.73c-58.82-.05-106.66-48.48-106.38-107.67.28-58.31,48.15-105.92,106.64-106.05,59.04-.14,107.31,48.06,107.09,106.93-.22,59.07-48.25,106.85-107.36,106.79ZM1423.39,863.53c38.61,4.07,71.23-26.66,70.9-64.69-.31-34.69-29.58-63.36-64.35-63.05-37.75.34-67.92,33.34-63.31,71.8,3.52,29.36,27.36,52.83,56.77,55.93Z"/>
      <path class="cls-1" d="M626.91,1264.28c10.35,4.04,19.95,7.79,29.84,11.65,2.49.97,3.82,3.7,3.06,6.26-.82,2.75-1.54,5.19-2.47,7.56-16.16,41.37-30.7,83.49-49.17,123.81-12.81,27.98-11.72,56.22-11.52,86.18.02,2.83,2.31,5.12,5.14,5.12h159.73c2.84,0,5.14,2.3,5.14,5.14v32.89c0,2.84-2.31,5.14-5.15,5.14-1.94,0-3.81,0-5.67,0-58.3,0-116.59.05-174.89-.03-19.98-.03-27.12-7.35-27.29-27.44,0-.44.04-.89,0-1.33-5.33-55.25,5.07-107.23,29-157.47,14.33-30.07,24.95-61.91,37.56-94.53,1.03-2.65,4.04-3.97,6.69-2.94Z"/>
      <path class="cls-1" d="M1280.84,1542.84v-31.81c0-2.84,2.3-5.14,5.14-5.14h160.17c2.89,0,5.25-2.38,5.14-5.27-.97-25.63,3.52-49.97-6.78-74.4-19.7-46.74-37.32-94.36-56.37-143.32-1.02-2.63.26-5.61,2.89-6.65,9.84-3.9,19.55-7.75,29.73-11.79,2.51-1,5.38.12,6.55,2.56s2.14,4.5,3.02,6.73c19.5,49.6,39.21,99.12,58.17,148.93,3.53,9.28,5.26,19.7,5.59,29.66.79,24,.47,48.04.16,72.07-.2,15.05-8.23,23.44-23.07,23.49-61.85.22-123.7.08-185.56.03-.01,0-.02,0-.04,0-2.68-.03-4.75-2.41-4.75-5.09Z"/>
      <rect class="cls-1" x="576.11" y="480.15" width="254.85" height="41.18" rx="20.47" ry="20.47"/>
      <rect class="cls-1" x="575.57" y="565.53" width="148.44" height="40.95" rx="20.47" ry="20.47"/>
    </g>
  </g>
</svg>