<?xml version="1.0" encoding="UTF-8"?>
<svg id="Layer_1" data-name="Layer 1" xmlns="http://www.w3.org/2000/svg" viewBox="0 0 2048 2048">
  <defs>
    <style>
      .cls-1 {
        fill: #e26600;
        stroke-width: 0px;
      }
    </style>
  </defs>
  <g id="_1XB5LO" data-name="1XB5LO">
    <g>
      <path class="cls-1" d="M1379.55,1693.27c-37.3-11.55-51.23-38.73-50.9-75.67.2-22.19.04-44.38-.03-66.57-.12-35.47-17.05-62.07-43.87-83.62-30.71-24.68-54.6-54.77-70.98-90.71-69.44-152.36,30.67-330.43,197.02-350.45,155.42-18.7,287.27,100.79,282.07,257.07-2.41,72.48-32.97,132.64-88.03,179.88-20.27,17.39-38.11,36.67-44.17,63.04-3.94,17.13-3.68,35.3-4.6,53.04-.65,12.6-.13,25.26-.13,37.89-.01,44.59-10.13,59.73-50.87,76.1h-125.5ZM1501.15,1535.23c7.74-49.19,33.11-85.55,69.36-116.22,39.6-33.51,61.02-77.14,66.12-129.01,12.28-124.79-104.63-232.27-227.14-207.05-80.92,16.66-135.52,65.68-156.02,145.72-20.14,78.66,5.86,144.9,68.03,196.68,32.27,26.88,54.46,59.4,61.31,101.55.5,3.1,4.86,7.93,7.48,7.96,36.52.53,73.04.36,110.87.36ZM1384.89,1591.8c0,12.24-.87,23.94.48,35.38.46,3.85,6.48,9.97,10.08,10.05,31.67.78,63.36.67,95.04.07,3.2-.06,8.79-4.88,9.04-7.84,1.03-12.35.43-24.84.43-37.67h-115.07Z"/>
      <path class="cls-1" d="M354.66,1656.68c11.29-33.67,22.3-67.44,33.94-100.99,26.07-75.17,53.06-149.87,90.81-220.37,36.77-68.65,117.27-101.48,191.26-82.88,75.74,19.04,129.75,86.13,129.8,164.84.04,65.92-28.22,117.38-86.74,150.39-55.91,31.53-115.56,54.49-175.89,75.66-45.52,15.97-91.54,30.51-137.32,45.76-3.19,1.06-6.17,2.77-9.25,4.18h-36.6c0-12.2,0-24.4,0-36.6ZM424.44,1623.59c36.13-12.53,69.54-22.44,101.61-35.6,55.44-22.76,111.22-45.21,164.62-72.2,42.82-21.64,61.88-72.69,51.76-119.73-10.4-48.3-47.63-83.99-95.65-91.71-47.6-7.64-93.8,13.57-117.92,57.09-45.36,81.81-73.02,170.81-104.41,262.15Z"/>
      <path class="cls-1" d="M1637.44,408.56c-38.9,4.37-76.37,6.32-112.96,13.07-217.71,40.12-402.73,141.57-553.86,302.85-78.31,83.57-152.78,170.72-229.07,256.18-14.77,16.55-29.93,32.75-44.06,48.18,107.45,107.51,214.18,214.31,321.59,321.77,21.45-19.14,43.71-39.28,66.34-59,5.13-4.47,11.09-8.85,17.43-10.9,11.52-3.72,24.24,2.28,30.36,12.54,6,10.06,6.06,25.41-3.62,32.4-15.78,11.4-14.38,24.9-11.83,41.15,8.03,51.16,14.82,102.51,22.15,153.79.47,3.29,1.39,6.51,2.74,12.65,12.49-16.38,23.32-30.91,34.5-45.15,9.89-12.6,24.74-15.76,37.08-8.41,13.5,8.05,19.12,25.76,9.08,38.45-25.89,32.73-52.98,64.55-80.46,95.97-7.48,8.55-18.78,10.67-30.16,5.98-11.08-4.57-16.65-12.8-18.32-24.79-9.6-68.94-19.57-137.83-29.91-210.22-8.79,7.76-16.01,14.06-23.15,20.45-19.55,17.48-32.24,17.3-50.53-.99-115.57-115.49-231.12-230.99-346.67-346.5-19.19-19.19-19.5-31.48-1.53-51.4,6.34-7.02,12.58-14.14,20.51-23.08-28.44-4.13-54.45-7.96-80.48-11.68-43.94-6.27-87.9-12.45-131.84-18.72-11.7-1.67-20.7-7.53-24.46-18.92-3.89-11.77-.53-22.03,8.45-30.87,98.7-97.13,215.09-162.09,350.99-189.82,39.92-8.14,81.1-9.95,121.61-15.42,6.57-.89,14.22-4.23,18.65-8.98,140.53-150.47,309.65-253.36,508.83-306.18,73.59-19.51,148.54-29.31,224.81-28.16,23.28.35,33.45,10.3,33.68,33.41,1.41,141.59-33.78,274.73-93.13,402.23-27.07,58.15-59.62,113.16-96.55,165.59-7.64,10.85-17.3,17.15-31.08,14.06-11.88-2.66-20.45-10.53-20.73-22.18-.21-8.74,3.23-18.93,8.28-26.24,45.42-65.81,83.84-135.31,113.54-209.62,37.46-93.74,60.15-190.69,63.81-291.81.09-2.56.01-5.14.01-11.69ZM514.7,905.72c63.34,9.18,123.17,18.11,183.11,26.11,5.49.73,13.48-2.84,17.41-7.1,28.66-31.03,56.59-62.74,84.71-94.26,21.06-23.6,42.06-47.26,65.34-73.42-132.95,15.05-247.81,63.37-350.58,148.67Z"/>
      <path class="cls-1" d="M1310.16,599.98c78.23-.06,139.24,59.98,139.58,137.37.33,76.64-62.69,139.91-139.41,139.96-76.68.05-139.78-63.14-139.58-139.79.2-77.21,61.29-137.48,139.41-137.54ZM1310.21,820.45c47.05.02,83.11-35.44,83.44-82.07.33-46.59-36.8-84-83.36-83.98-46.58.02-83.82,37.44-83.5,83.9.33,46.56,36.45,82.13,83.41,82.15Z"/>
    </g>
  </g>
</svg>