<?xml version="1.0" encoding="UTF-8"?>
<svg id="Layer_1" data-name="Layer 1" xmlns="http://www.w3.org/2000/svg" viewBox="0 0 2048 2048">
  <defs>
    <style>
      .cls-1 {
        fill: #e26600;
        stroke-width: 0px;
      }
    </style>
  </defs>
  <path class="cls-1" d="M1845.45,1249.49c-.8-143.6-85.61-260.29-221.53-305.13,5.99-3.73,11.68-7.28,17.16-11.17,82.75-58.64,126.81-136.89,130.95-232.57,3.64-84.16,1.96-170.11.49-245.95-2.07-106.44-90.33-196.04-196.75-199.72-65.11-2.25-132.9-2.42-207.22-.51-117.54,3.02-204.19,90.81-206.04,208.76-1.06,67.57-1.85,147.33.27,226.5,2.92,108.77,52.97,194.43,148.77,254.61.73.46,1.46.93,2.21,1.41-100.49,37.32-166.53,105.15-201.21,206.69-.69-1.49-1.37-2.97-2.05-4.44-6.38-13.81-12.4-26.85-17.84-39.9-23.61-56.73-65.46-84.31-127.93-84.31h-.46l-87.71.21c-193,.48-392.57.96-588.81-.83-31.39-.49-58.1,12.95-73.25,36.32-15.15,23.37-16.42,52.95-3.49,81.17,81.4,177.7,161.72,359.52,239.39,535.35l14.93,33.81c25.29,57.25,68.1,85.09,130.88,85.09h.96c140.06-.63,282.47-.53,420.21-.42,101.31.08,202.62.09,303.93.14,110.49.07,224.77.12,337.15-.16,109.83-.28,186.76-77.25,187.07-187.19.34-121.05.59-239.5-.06-357.76ZM1298.48,1729.64c-3.73,5.74-13.61,8.66-29.39,8.67-80.99.07-161.97.05-242.96.04h-97.19c-.28,0-.56,0-.84,0-31.34,0-62.69-.06-94.03-.13-77.27-.16-157.12-.32-235.69.53-40.43.31-65.88-15.83-82.17-52.75-59.75-135.41-121.1-272.81-180.42-405.69-23.85-53.42-47.7-106.85-71.52-160.29-6.62-14.84-8.11-25.23-4.45-30.87,3.69-5.69,13.92-8.57,30.41-8.58,10.3,0,20.59,0,30.89,0,52.9,0,105.81.02,158.71.04,158.29.07,321.99.13,483-.38h.44c38.45,0,62.65,15.94,78.42,51.63,59.36,134.33,120.23,270.67,179.1,402.52,24.58,55.06,49.16,110.11,73.7,165.18,6.36,14.26,7.7,24.39,4,30.09ZM1716.6,514.82c-.05,6.42-.1,12.94-.13,19.58-39.92-10.7-68.13-33.75-86.06-70.27-7.03-14.32-12.46-22.6-21.05-25.39-9.51-3.06-19.62,1.69-33.98,9.31-72.96,38.74-146.32,38.2-218.03-1.59-12.55-6.96-22.15-10.71-31.2-7.82-9.49,3.02-15.33,12.89-20.23,23.09-18.89,39.37-47.32,62.66-89.01,72.71.43-9.91.67-19.72.9-29.27.67-27.29,1.29-53.07,6.18-78.02,12.79-65.28,71.41-113.98,139.38-115.79,36.83-.98,72.23-1.47,106.7-1.47s68.29.5,101.5,1.49c78.71,2.35,142.29,66.74,144.76,146.59.57,18.6.43,37.18.27,56.85ZM1219.01,600.55c.07-2.48,2.64-7.31,4.26-8.61,52.83-11.22,94.21-40,123.08-85.57,81.64,34.81,161.18,34.83,242.76,0,27.73,46.08,69.55,74.39,127.52,86.31-.41,15.04-.21,30.1-.03,44.71.57,45.17,1.11,87.83-14.5,129.95-41.26,111.31-155.87,178.54-272.51,159.85-121.08-19.4-207.75-117.31-210.76-238.11-.73-29.27-.67-59.06.18-88.54ZM1334.48,1650.02c-6.1-12.44-12.37-25.23-16.74-38.56h91.63c71.66,0,143.32.02,214.98-.02,30.72-.01,39.61-9,39.64-40.07.05-44.01.04-88.02.03-132.52v-46.99s125.19,0,125.19,0v68.82c0,15.82.04,31.64.09,47.45.1,34.46.21,70.1-.22,105.11-.87,71.18-52.11,123.59-121.83,124.6-73.59,1.08-148.47.83-220.88.59-29.37-.1-58.75-.2-88.12-.21-.65,0-1.37-.07-2.16-.18,5.13-33.46-8.45-61.18-21.61-88.04ZM1512.27,1055.71c-27.38,19.34-56.04,20.76-85.19,4.25-26.35-14.93-39.31-37.99-40.43-72.24h159.18c.48,29.46-10.54,51.74-33.55,67.98ZM1329.4,1000.31c19.47,88.17,70.11,134.6,143.3,131.02,71.06-3.49,119.22-53.35,130.06-133.92,44.12,11.82,82.57,35.46,117.32,72.08,71.58,75.44,73.71,167.45,68.03,263.25h-124.08v-22.43c.02-29.4.03-58.72-.06-88.04,0-1.39.07-2.85.14-4.34.29-6.2.62-13.22-3.29-18.58-2.27-3.11-14.26-18.59-26.16-17.14-7.88.91-16.02,7.29-24.87,19.5-3.53,4.88-2.99,11.06-2.51,16.51.14,1.59.29,3.18.29,4.65-.02,90.04-.02,180.08-.02,270.11v61.3c-3.68.35-7.16.67-10.44.67-30.77.02-61.54.02-92.29.02-66.08,0-134.36-.01-201.55.27-9.45.09-12.63-2.03-16.37-10.57-49.38-112.47-88.01-198.91-125.26-280.27-11.52-25.16-5.63-50.33.06-74.67,21.51-91.98,76.4-154.01,167.71-189.41Z"/>
</svg>