<?xml version="1.0" encoding="UTF-8"?>
<svg id="Layer_1" data-name="Layer 1" xmlns="http://www.w3.org/2000/svg" viewBox="0 0 2048 2048">
  <defs>
    <style>
      .cls-1 {
        fill: #e26600;
        stroke-width: 0px;
      }
    </style>
  </defs>
  <g id="Fcpt42">
    <path class="cls-1" d="M1676.84,960.54c28.49-28.24,36.33-61.72,23.33-99.52-12.67-36.75-39.06-58.4-78.46-64.28-98.3-14.64-212.51-31.64-324.2-47.2-20.22-2.81-33.23-12.25-42.21-30.59-34.03-69.77-68.98-140.55-102.79-208.98-13.55-27.44-27.1-54.84-40.61-82.28-17.54-35.54-45.35-55.38-80.43-57.31-44.85.13-76.91,18.96-95.24,56.01-46.15,93.1-93.73,189.68-145.42,295.29-7.97,16.28-19.97,25.05-37.72,27.57-93.48,13.22-188.43,27.15-280.31,40.61l-46.99,6.88c-30.96,4.53-53.83,19.51-69.9,45.77-23.66,38.68-17.2,86.6,15.99,119.24,91.09,89.49,165.35,161.91,233.82,227.91,15.57,14.98,20.81,31.13,17.03,52.36-19.3,108.46-35.7,203.36-50.1,290.09l-1.05,6.29c-3.31,19.55-6.71,39.73-4.07,57.23,7.22,47.83,45.48,81.27,93.06,81.27,16.61,0,32.98-4.11,48.59-12.21,102.92-53.45,205-107.37,291.3-153.1,8.35-4.41,16.15-6.59,23.91-6.59s15.57,2.22,23.37,6.75c9.9,5.75,20.01,10.95,30.71,16.45,4.7,2.39,9.4,4.78,14.06,7.26,24.42,12.84,48.84,25.68,73.3,38.52,56.56,29.79,115.04,60.54,172.65,90.67,16.4,8.6,32.64,12.96,48.17,12.96,19.01,0,37.59-6.55,55.21-19.47,32.1-23.41,44.89-55.93,37.97-96.54l-9.06-53.16c-14.6-86.01-29.71-175-45.31-262.31-4.36-24.63,1.17-42.29,18.67-58.99,78.25-74.93,156.54-151.17,232.73-226.61ZM1363.93,1262.29c16.32,84.5,30.63,170.72,44.43,254.09,2.89,17.62,5.83,35.24,8.77,52.86,1.72,10.36-1.09,28.74-12.8,37.26-4.78,3.48-10.91,5.24-18.21,5.24s-15.15-1.85-21.02-4.91c-79.13-41.08-183.31-95.32-287.61-150.96-18.5-9.86-36.04-14.68-53.66-14.68s-34.7,4.7-52.82,14.39c-67.21,35.79-135.73,71.7-202.02,106.4-26.68,13.97-53.37,27.94-80.01,41.96-.96.5-1.93,1.05-2.89,1.59-3.23,1.76-6.88,3.73-11.08,5.33-4.45,1.72-8.98,2.6-13.47,2.6-8.6,0-16.57-3.31-22.49-9.27-6.5-6.59-10.07-16.07-9.94-26.64v-1.34l.25-1.3,6-35.08c4.45-26.01,8.94-52.32,13.47-78.63,4.11-23.87,8.27-47.75,12.38-71.66,8.27-47.7,16.82-97.05,25.05-145.63,6.29-37.05-4.11-68.05-31.76-94.74-46.45-44.94-93.44-90.84-138.83-135.23-19.8-19.34-39.57-38.64-59.37-57.98-3.48-3.4-7.09-6.75-10.66-10.11-8.64-8.14-17.58-16.53-25.72-25.93-7.51-8.6-15.15-23.29-12.13-36.38,3.44-14.85,21.57-23.03,32.14-24.67,51.14-7.97,103.17-15.44,153.48-22.7,13.64-1.97,27.31-3.94,40.95-5.92,14.6-2.1,29.24-4.2,43.84-6.29,29.2-4.2,59.45-8.52,89.12-12.96,36.38-5.5,62.22-24.8,78.92-59.03,27.23-55.8,55.17-112.32,82.23-166.99,11.54-23.37,23.12-46.74,34.61-70.11,2.52-5.08,4.99-10.24,7.43-15.36,6-12.63,12.25-25.64,19.47-38.18,5.54-9.57,17.16-25.68,33.02-26.1h.59c16.41,0,29.41,17.29,33.98,26.39,9.82,19.51,19.64,38.98,29.5,58.45,35.33,69.77,71.83,141.9,104.89,214.36,22.95,50.18,57.02,74.43,113.91,81.06,80.22,9.4,161.24,21.82,239.61,33.86,19.97,3.06,39.94,6.13,59.91,9.15,10.87,1.64,29.79,9.82,34.32,24.8,4.62,15.31-7.34,32.35-14.31,39.23-14.27,14.06-28.53,28.15-42.75,42.25-57.94,57.31-117.9,116.64-178.65,173.15-37.55,34.95-49.93,73.3-40.07,124.36Z"/>
  </g>
</svg>