<?xml version="1.0" encoding="UTF-8"?>
<svg id="Layer_1" data-name="Layer 1" xmlns="http://www.w3.org/2000/svg" viewBox="0 0 2048 2048">
  <defs>
    <style>
      .cls-1 {
        fill: #e26600;
        stroke-width: 0px;
      }
    </style>
  </defs>
  <g id="jkErgB">
    <g>
      <path class="cls-1" d="M1650.17,438.37v152.61c-6.26,14.03-16.39,19.75-32.92,18.39-9.27-.68-18.57-.5-28.34-.32-4.4.18-8.95.18-13.85.18h-8.44v167.78c0,137.9-.18,275.66.5,413.57,0,12.49-2.86,21.79-8.44,27.52-5.73,5.58-14.85,7.76-27.02,8.27-79.33-.68-158.51-.5-237.84-.5h-111.57v55.21c0,29.2.18,58.4-.32,87.59-.18,12.31,3.72,21.61,12.99,30.88,68.02,67.52,135.9,135.22,203.24,203.24,5.58,5.58,9.8,12.67,11.49,18.89,2.54,9.63-1.68,19.07-10.81,24.15-8.44,4.54-20.07,3.04-27.7-3.36-2.36-1.86-4.54-4.04-6.58-6.26l-156.15-156.15c-2.04-2.04-4.04-3.86-6.58-6.26l-18.07-17.03-1.18,23.97c-.18,3.36-.32,5.9-.32,8.62v47.95c0,27.52,0,54.85-.18,82.19,0,17.39-8.77,28.34-22.97,28.52-6.58-.32-12.17-2.04-16.39-6.08-5.22-5.05-8.09-12.99-8.09-22.29-.18-33.42-.18-66.84,0-101.44v-62.12l-18.57,17.03c-2.72,2.54-4.72,4.4-6.76,6.41l-40.33,40.33c-39.15,39.15-78.15,78.33-117.65,116.97-5.4,5.22-14.03,9.63-22.11,11.13-11.31,1.86-17.39-7.26-19.57-11.31-4.72-9.12-4.04-17.71,1.86-26.01,2.18-2.86,4.72-5.22,7.08-7.76l44.91-44.73c53.49-53.49,107.2-107.2,160.52-161.02,5.9-6.08,10.13-15.53,10.31-23.62.5-33.6.32-67.02.32-100.62v-27.19c0-2.36-.18-4.72-.32-7.44l-.68-12.49-64.98.18c-49.45,0-99.08,0-148.71-.32-7.26,0-13.49-1-18.07-3.04-9.63-4.54-15.21-15.21-12.85-25.48,2.18-10.31,11.99-18.25,23.47-18.75,3.22-.18,6.58,0,9.8-.18h596.02v-569.04h-597.38c-6.26,0-12.17-.18-16.71-1.86-10.48-3.54-16.89-14.17-15.35-24.98,1.36-9.8,10.63-18.89,20.93-20.25,3.54-.5,7.08-.5,10.63-.5h681.43v-93.18h-696.96c-10.48,0-19.07-.5-24.98-6.58-7.08-7.26-9.12-14.35-6.91-22.29,2.72-9.45,8.44-15.21,17.39-17.39,5.22-1.18,10.98-1.36,17.57-1.36h204.07c167.46,0,334.88,0,502.52-.18h.18c18.57,0,29.02,5.08,35.46,17.71l-.04.11Z"/>
      <path class="cls-1" d="M1215.16,804.67c-3.36-25.83-18.75-47.95-42.04-60.61-30.88-16.71-61.44-13.85-90.64,8.27-26.34,20.25-52.31,40.86-78.83,61.62l-40.33,31.92-37.82-31.24c-26.66-21.93-52.85-43.55-79.19-65.34-18.57-15.53-38.64-22.79-61.44-22.11-15.21.5-29.88.5-43.9,0-12.99-.86-22.11,4.04-30.38,14.53-10.31,13.67-21.11,26.84-31.92,40.18l-9.95,12.31c-1.5,2.04-3.36,4.04-5.4,6.26l-9.45,10.81-20.61-25.66c-12.31-15.21-23.97-29.7-35.6-44.41-7.94-9.95-17.03-14.67-28.38-14.03-7.44.18-15.03.18-22.44.18h-7.26c-4.22,0-8.44,0-12.49.18-37.14.86-72.57,17.89-97.08,46.77-24.8,29.2-36.1,67.2-31.06,104.66,8.09,59.93,16.03,119.83,23.8,179.77l7.44,55.86c5.08,38.5,22.61,67.34,53.67,88.13,6.26,4.22,10.13,12.67,10.98,18.57l9.8,70.74c13.17,94.18,26.84,191.58,39,287.62,5.58,44.41,35.46,70.88,76.14,68.88,14.67-.86,29.38-.68,43.55-.5,11.99.18,23.97.18,35.96-.18,33.1-1,58.75-24.15,63.48-57.57,1.5-10.81,2.68-21.79,3.86-32.74l1-9.95c2.36-20.43,4.4-40.86,6.58-61.12,4.54-43.05,9.12-87.45,14.53-131,9.63-76.47,19.57-152.93,29.7-229.22l11.49-86.41c1.86-14.85,3.86-29.7,6.08-45.41l5.08-37.46,29.38,24.3c12.17,10.13,23.8,19.75,35.46,29.2,36.14,29.2,74.28,29.7,110.75,1.36,38.32-29.88,76.47-60.08,114.79-90.31,5.22-4.22,10.45-8.27,15.85-12.49,14.53-11.31,29.56-22.79,43.05-35.46,19.07-18.07,28.2-43.22,24.8-68.88h-.04ZM1160.49,836.06c-4.04,5.05-8.95,9.12-13.17,12.49-52.49,41.36-104.98,82.87-157.66,124.24-20.93,16.39-34.78,16.21-55.35-.86l-25.33-20.75c-21.61-17.71-43.22-35.6-64.48-53.49-11.31-9.63-20.07-11.99-30.2-8.27-9.45,3.36-13.67,10.31-15.71,25.15-5.4,41.36-10.81,82.55-16.21,123.73-7.59,57.9-15.35,115.61-22.61,173.36-10.13,80.19-19.75,160.38-29.2,240.53l-2.04,16.39c-4.04,34.28-7.44,68.7-10.98,103.12-2.36,23.97-7.59,28.88-30.74,28.88l-21.61-.18c-16.39,0-32.56,0-48.95.18h-.68c-13.49,0-21.61-7.08-23.47-20.61-8.44-62.8-17.03-125.42-25.48-188.21l-27.19-199.52c-1.5-11.49-6.76-18.75-16.39-22.97-26.84-11.49-42.04-32.92-46.09-65.16-6.58-52.67-13.67-105.34-20.93-158.01l-9.8-72.74c-.32-3.04-.5-6.26-.5-8.09v-1.36c-.18-46.91,34.6-85.09,80.69-88.95,20.25-1.86,43.05,0,58.75,26.34,6.76,11.13,15.35,21.11,24.47,31.92,4.04,4.54,7.94,9.12,11.63,13.67,10.13,12.67,21.43,19.25,32.92,19.25s22.79-6.58,33.1-19.25c6.26-7.44,12.31-15.03,18.25-22.61,10.31-12.81,20.43-25.66,31.06-38.14,5.4-6.4,14.53-9.8,21.25-10.99,28.2-4.72,53.17,3.72,78.51,26.66,24.3,22.29,50.63,43.55,76.14,63.98,9.95,8.09,20.07,16.39,30.06,24.48,15.53,12.85,24.98,12.99,40.51.68,25.48-19.93,50.81-39.83,76.14-59.76l47.59-37.46c4.04-3.04,6.91-5.4,10.13-7.08,14.53-8.44,32.74-5.73,43.22,6.76,10.13,11.99,10.31,30.06.32,42.69h.04Z"/>
      <path class="cls-1" d="M655.61,399.37h-.32c-81.01.32-146.67,66.16-146.53,146.85,0,39.5,15.53,76.65,43.55,104.48,27.52,27.34,64.16,42.54,102.98,42.54h1c80.87-.68,146.35-66.84,146.17-147.71-.32-80.69-66.16-146.17-146.85-146.17h0ZM725.49,616.14c-18.89,18.89-43.73,29.38-69.88,29.38h-.5c-54.53-.18-98.76-44.73-98.76-99.26s44.23-98.76,98.58-99.08h.68c54.17,0,98.58,43.87,99.08,98.4.32,26.34-10.13,51.31-29.2,70.56h0Z"/>
    </g>
  </g>
</svg>