<?xml version="1.0" encoding="UTF-8"?>
<svg id="Layer_1" data-name="Layer 1" xmlns="http://www.w3.org/2000/svg" viewBox="0 0 2048 2048">
  <defs>
    <style>
      .cls-1 {
        fill: #e26600;
        stroke-width: 0px;
      }
    </style>
  </defs>
  <g id="_53ePyP" data-name="53ePyP">
    <g>
      <path class="cls-1" d="M718.98,806c-40.89-.75-74.92,13.41-103.7,39.7-68.87,62.93-69.12,167.66-1.13,231.46,2.93,2.75,6.08,5.28,8.86,8.17,13.2,13.7,13.97,33.08,1.96,46.09-11.68,12.65-30.43,14.08-44.82,2.13-44.74-37.18-72.62-84.38-79.47-142.41-14.91-126.25,69.19-233.59,195.51-250.23,11.77-1.55,23.92-.21,35.29-.21,51.91-167.7,227.08-253.52,384.52-203.48,144.84,46.04,233.66,195.42,205.18,347.75-27.43,146.72-166.57,255.32-314.57,246.12-170.06-10.58-299.65-157.68-287.63-325.09ZM1024.26,588.58c-131.5-.15-239.27,106.93-239.5,237.98-.24,131.02,107.42,238.87,238.6,239.04,131.36.17,239.32-107.17,239.52-238.14.21-131.11-107.3-238.73-238.62-238.88Z"/>
      <path class="cls-1" d="M1428.6,1524.96c-17.49-3.59-26.1-12.35-33.27-24.33-38.94-65.08-91.24-116.54-156.63-155.24-191.18-113.14-448.14-54.48-571.01,130.88-6.1,9.2-11.82,18.66-17.68,28.02-10.64,16.98-29.28,22.43-45.25,13.2-15.7-9.08-21.68-29.21-10.8-45.85,17.82-27.25,35.46-55.09,56.83-79.48,222.67-254.21,627.74-216.63,799.97,73.56,7.65,12.88,12.85,26.64,3.55,39.41-6.11,8.4-16.97,13.34-25.71,19.82Z"/>
      <path class="cls-1" d="M1550.99,963.83c-1.39,164.84-178.33,272.53-324.69,197.15-4.01-2.07-8.03-4.21-11.77-6.72-15.89-10.66-20.57-29.25-11.4-44.69,8.82-14.85,26.53-20.03,43.37-11.19,23.51,12.35,48.07,20.41,74.64,21.32,67.32,2.3,126.41-35.68,152.42-97.64,25.22-60.08,9.49-129.19-39.36-175.41-6.71-6.34-13.87-13.95-16.61-22.35-4.59-14.07.94-26.84,13.36-35.46,11.58-8.04,27.72-6.42,40.44,4.39,40.95,34.79,66.85,78.43,75.54,131.71,2.09,12.84,2.74,25.92,4.05,38.88Z"/>
      <path class="cls-1" d="M1681.17,1524.85c-16.27-3.48-25.21-11.13-32.12-22.73-32.99-55.37-76.63-100.65-132.7-132.39-26.41-14.94-55.17-26.01-83.57-37.04-22.7-8.82-33.48-24.21-27.12-44.12,5.63-17.63,23.89-25.34,45.98-18.51,109.08,33.73,193.08,99.74,252.66,197.04,7.9,12.91,11.61,26.92,2.01,39.38-6.08,7.89-16.61,12.35-25.14,18.35Z"/>
      <path class="cls-1" d="M643.46,1298.62c.19,17.15-8.46,27.55-28.42,33.62-68.88,20.96-127.78,57.77-174.8,112.36-15.63,18.14-28.78,38.52-42.1,58.51-11.71,17.57-29.81,23.89-46.2,14.49-15.99-9.17-21.05-29.24-10.26-47.32,60-100.47,146.21-167.7,258.28-201.34,23.31-7,43.25,7.36,43.49,29.68Z"/>
    </g>
  </g>
</svg>