<?xml version="1.0" encoding="UTF-8"?>
<svg id="Layer_1" data-name="Layer 1" xmlns="http://www.w3.org/2000/svg" viewBox="0 0 2048 2048">
  <defs>
    <style>
      .cls-1 {
        fill: #e26600;
        stroke-width: 0px;
      }
    </style>
  </defs>
  <g id="PTgDVc">
    <path class="cls-1" d="M1569.32,1087.84c-22.81,15.84-32.05,38.72-35.36,64.28-3.69,28.51-4.55,57.46-9.09,85.82-7.12,44.61-36.82,73.63-81.46,80.49-11.29,1.75-16.88,6.07-20.76,16.28-13.71,36.11-37.41,62.49-75.8,72.85-10.29,2.79-21.61,5.4-31.82,3.91-14.27-2.09-22.99,2.16-33.31,11.96-40.77,38.83-89.73,52.58-145,41.25-9.13-1.86-14.91-.71-21.84,5.48-26.35,23.51-57.65,36.41-92.9,34.84-16.58-.75-26.68,5.03-36,17.22-17.81,23.29-40.84,37.23-71.1,36.82-39.39-.52-65.44-22.17-81.61-68.64-27.54,5.18-53.62,1.01-76.65-16.51-23.07-17.51-34.43-41.44-36.78-70.32-43.45.15-72.7-19.15-87.98-59.88-42.07,8.68-77.17-2.09-98.3-41.14-19.08-35.29-11.18-68.57,12.89-96.7-24.33-45.05-48.03-88.95-72.48-134.15-35.55,27.39-68.53,24.74-103.26,5.59-36.85-20.31-75.05-38.23-112.61-57.35-17.29-8.79-23.33-22.14-16.66-35.74,6.74-13.79,20.98-16.96,38.61-8.12,40.39,20.31,80.64,40.84,121.04,61.19,22.95,11.55,36.07,7.01,46.84-16.43,51.28-111.57,102.48-223.14,153.6-334.75,11.74-25.6,7.19-36.63-19.23-48-76.43-32.87-152.9-65.7-229.33-98.53-2.83-1.23-5.78-2.2-8.5-3.61-13.27-6.93-18.48-19.75-13.3-32.23,5.03-12.11,18.63-18.19,32.38-12.78,20.53,8.09,40.62,17.33,60.93,26.05,59.92,25.75,119.73,51.72,179.84,77.06,27.65,11.66,46.1,30.45,51.05,60.59,1.38,8.42,5.63,10.73,13.34,11.37,29.96,2.53,58.39-2.01,84.78-17.1,17.85-10.21,35.81-20.2,53.59-30.52,55.45-32.27,113.51-37.41,173.58-15.61,28.43,10.32,55.97,22.99,84.33,33.61,6.82,2.57,16.4,3.91,22.58,1.12,62.94-28.17,122.64-22.58,180.81,13.49,29.14,18.07,57.95,37.49,93.61,41.48,13.86,1.57,22.1.71,28.36-15.91,5.48-14.5,18.71-29.51,32.46-36.89,79.22-42.48,159.57-82.84,239.65-123.72,15.24-7.79,28.84-3.76,35.55,9.47,6.63,13.12,1.94,26.31-13.6,34.32-75.35,38.87-150.85,77.4-226.27,116.04-28.51,14.61-30.71,20.98-16.58,49.15,53.66,106.99,107.36,213.97,161.06,320.96,11.37,22.62,20.35,25.64,43,14.42,41.44-20.5,82.58-41.59,124.43-61.23,7.83-3.69,19.53-4.7,27.13-1.49,6.15,2.61,12.48,13.68,12.04,20.57-.48,7.64-6.89,18.07-13.68,21.65-46.39,24.3-93.09,48.22-140.67,70.02-32.53,14.91-61.11,3.69-85.48-21.91l-.04-.07ZM1000.44,1333.74c27.61,10.99,44.94,30.63,53.25,59.36,14.46-13.71,27.76-11.55,41.4-1.42,7.01,5.18,14.46,9.88,22.1,14.05,42.44,23.18,94.32,16.62,129.49-16.84-4.99-3.06-9.61-6.07-14.38-8.79-40.28-22.73-80.68-45.24-120.85-68.12-16.28-9.28-20.61-24.26-11.59-37.23,7.9-11.33,20.91-13.64,35.66-5.4,48,26.79,95.84,53.92,143.77,80.83,46.62,26.16,85.45,9.65,100.69-43.52-4.02-2.42-8.27-5.14-12.67-7.56-43.23-23.74-86.49-47.44-129.72-71.18-4.06-2.24-8.24-4.25-12.07-6.82-11.96-8.05-15.54-20.42-9.54-32.08,6.3-12.22,19.38-16.58,32.83-10.69,4.7,2.05,9.17,4.66,13.64,7.12,47.29,25.97,94.47,52.1,141.9,77.85,23.51,12.78,48.74,7.9,63.65-11.44,14.91-19.38,13.97-48.37-3.28-66.74-6.19-6.56-14.24-11.78-22.25-16.14-91.11-49.67-182.41-99.01-273.6-148.57-5.37-2.91-10.88-6.15-15.17-10.4-29.92-29.66-59.92-59.33-89.21-89.66-26.05-26.98-56.83-37.9-93.65-30-16.55,3.54-32.87,8.24-49.34,12.22-84.93,20.64-160.95-30-174.29-116.08-5.11-32.9,15.05-59.4,48.22-62.31,55.11-4.81,108.48-17.33,160.8-34.73,19-6.34,37.67-13.53,56.49-20.35-21.8-10.88-43.15-18.07-64.73-24.59-35.1-10.62-69.31-7.01-101.88,9.13-20.23,10.02-40.02,20.98-59.33,32.72-41.21,25.08-85.11,34.66-132.96,27.13-4.21-.67-11.89,3.32-13.64,7.15-46.25,99.72-92.04,199.63-137.43,299.76-1.94,4.29-1.16,12.48,1.79,15.8,22.73,25.79,39.24,55,52.21,86.75,6.07,14.94,15.35,28.54,23.18,42.82,56.94-33.2,92.86-25.08,132.4,28.06,54.03-38.2,109.59-19.56,134.67,31.41,44.38-37.08,88.21-42.03,125.84-14.16,38.83,28.73,48.67,70.77,27.58,122.64v.04ZM1546.25,1043.83c-2.68-5.66-4.96-10.73-7.45-15.73-43.79-87.24-88.02-174.25-131.02-261.9-8.42-17.18-16.14-30.18-37.94-24.37-2.79.75-6.11-.37-9.2-.6-42.71-2.72-78.63-23.14-113.1-45.65-48.33-31.56-96.4-33.76-148.87-9.54-78.48,36.22-159.6,65.62-245.31,80.3-18.97,3.24-38.2,5.25-57.13,7.79,4.92,58.1,54.26,94.32,109,81.65,16.99-3.95,33.76-8.91,50.79-12.74,53.81-12.11,100.88.63,140.11,39.72,28.06,27.95,55.52,56.46,83.36,84.63,3.58,3.61,7.34,7.42,11.78,9.8,98.34,53.33,196.79,106.43,295.99,160.01,9.91-37.26,24.63-71.36,58.95-93.42l.04.04ZM916.37,1239.73c-9.95,5.55-21.95,9.13-29.51,16.99-36.22,37.82-71.62,76.47-106.58,115.48-16.36,18.26-14.53,43.71,2.5,59.59,17.25,16.06,42.15,16.21,59.55-1.57,37.04-37.79,73.34-76.28,109.71-114.66,12.11-12.78,15.35-27.72,7.56-43.93-8.35-17.33-20.87-29.18-43.26-31.9h.04ZM802.68,1261.67c-.45-19.41-7.04-30.45-20.61-36.26-14.94-6.41-28.36-2.61-39.09,9.17-18.63,20.5-37.12,41.18-55.11,62.27-13.49,15.8-12.6,35.4,1.23,48.26,14.35,13.34,34.62,12.3,49.23-3.54,18.45-20.01,36.56-40.32,54.03-61.15,5.33-6.34,8.2-14.76,10.32-18.74h0ZM1006.7,1416.17c-1.04-18.82-7.68-29.25-20.64-34.69-12.22-5.11-24.3-4.58-33.95,5.74-20.31,21.69-40.69,43.38-60.37,65.66-13.53,15.35-12.48,35.59,1.27,48.26,14.09,13.01,34.95,11.81,49.26-3.76,18.74-20.35,37.26-40.99,54.97-62.23,5.25-6.3,7.56-15.02,9.43-18.97h.04ZM573.09,1259.92c-.04,18.04,6.67,28.43,19.23,34.47,13.38,6.37,26.76,4.55,36.85-6,12.37-12.89,24-26.72,34.43-41.25,10.55-14.64,7.08-32.94-6.48-44.08-13.27-10.92-32.49-10.84-44.68,1.9-12,12.56-22.92,26.23-33.43,40.13-3.76,4.99-4.92,12-6,14.83h.07ZM1055.67,1424.41c-3.2,10.36-5.78,18.63-9.32,30.04,11.63-5.81,20.01-10.02,30.52-15.28-8.12-5.66-13.94-9.69-21.2-14.76Z"/>
  </g>
</svg>