<?xml version="1.0" encoding="UTF-8"?>
<svg id="Layer_1" data-name="Layer 1" xmlns="http://www.w3.org/2000/svg" viewBox="0 0 2048 2048">
  <defs>
    <style>
      .cls-1 {
        fill: #e26600;
        stroke-width: 0px;
      }
    </style>
  </defs>
  <g id="UiSAfU">
    <g>
      <path class="cls-1" d="M1283.47,1408.19c-5.24,39.25-10.08,47.71-26.15,46.89-15.67-.8-20.19-9.57-23.25-45.91h-302.71c5.18,31.1,10.25,61.61,15.49,93.04,7.47,0,13.28,0,19.08,0,229.08,0,458.17-.03,687.25.03,43.65.01,75.48,30.21,75.24,70.96-.22,36.75-29.23,67.52-65.94,69.86-3.9.25-7.83.17-11.74.17-418.03,0-836.06.01-1254.09,0-39.32,0-67.79-20.64-75.37-54.39-9.83-43.76,17.2-79.4,67.67-87.45,0-19.69.53-39.67-.08-59.62-4.56-148.17,100.63-264.78,230.92-287.25.9-.15,1.69-.88,2.85-1.51,3.84-12.67.96-20.2-12.89-26.35-92.02-40.81-152.07-108.55-169.28-209.61-23.71-139.22,62.91-302.11,231.19-327.72,38.64-5.88,77.05-2.91,115.39,5.05,1.21-9.82,1.58-19.12,3.58-28.06,9.81-43.96,46.53-74.62,91.41-74.68,251.11-.29,502.22-.34,753.33,0,53.69.07,93.02,42.34,93.05,98.37.11,229.62.06,459.24.02,688.87,0,15.66,1.05,31.5-.89,46.94-6.08,48.32-45.48,82.18-95.22,82.29-111.11.23-222.23.07-333.35.08-5.26,0-10.53,0-15.51,0ZM930.53,1361.18h16.82c225.68,0,451.36,0,677.04,0,40.01,0,57.08-17.12,57.08-57.24,0-236.01,0-472.02,0-708.03,0-40.17-17.09-57.41-56.88-57.41-243.3,0-486.61,0-729.91,0-42.87,0-59.1,16.57-59.43,59.47-.07,9.29,2.22,14.53,10.96,19.36,101.65,56.17,155.26,143.1,151.52,258.83-3.84,118.92-65.07,203.25-173.84,251.95-10.59,4.74-14.45,9.7-10.36,21.53h17.21c142.95,0,285.89-.01,428.84.03,6.84,0,14.14-.97,20.43,1.02,9.92,3.14,16.36-.32,23.64-6.43,72.01-60.39,144.26-120.49,216.45-180.67,16.92-14.1,33.67-28.41,50.84-42.21,12.03-9.67,25.19-8.82,34.07,1.34,9.2,10.54,7.54,24.16-4.29,34.96-1.44,1.32-3.03,2.48-4.53,3.73-83.09,69.27-166.19,138.53-249.26,207.82-4.34,3.62-8.5,7.44-12.71,11.14,20.21,30.15,24.12,60.32,6.89,91.23-17.56,31.51-45.91,42.89-81.01,42.73-103.78-.47-207.57-.17-311.35-.17h-18.22v47.01ZM951.81,867.51c.16-132.88-102.16-234.72-236.1-234.97-127.08-.24-232.73,106.45-232.74,235.03-.01,128.51,105.66,235.18,232.8,235.01,133.82-.18,235.89-101.82,236.05-235.07ZM623.93,1501.54h274.66c-.85-5.56-1.4-10.41-2.36-15.17-12.57-62.26-17.07-125-11.53-188.38,2.22-25.38,8.08-30.82,34.13-30.82,113.09-.01,226.18,0,339.27-.01,4.89,0,9.83.25,14.68-.26,18.03-1.92,31.78-16.72,32.19-34.32.42-18-13.74-33.74-32.32-35.67-4.36-.45-8.8-.24-13.21-.24-144.91,0-289.83,0-434.74,0h-14.9c-20.65,45.77-45.13,66.95-84.64,69.35-47.75,2.9-79.22-21.84-98.9-67.64-23.09,9.05-46.28,15.68-67.15,26.72-94.88,50.2-143.96,163.16-121.35,276.04h139.18c0-7.92,0-14.74,0-21.56,0-7.35-.19-14.7.06-22.03.54-15.83,10.26-26.09,24.06-25.71,13.25.37,22.41,10.29,22.79,25.5.35,14.18.08,28.37.08,44.23ZM1023.32,1549.22c-206.54,0-413.08,0-619.63,0-4.4,0-8.82-.17-13.21.07-14.68.79-24.86,10.66-24.66,23.73.2,13.12,10.34,22.44,25.28,23.17,2.93.14,5.87.04,8.81.04,416.02,0,832.04,0,1248.06-.01,4.4,0,8.93.43,13.18-.42,12.59-2.53,20.19-10.4,20-23.39-.19-12.95-7.91-20.71-20.6-22.85-4.77-.8-9.77-.32-14.66-.32-207.52-.01-415.04,0-622.56,0ZM671.72,1148.05c-2.18,24.53-3.59,49.61,22.34,65.23,17.12,10.31,34.6,9.4,50.98-2.05,18.5-12.92,24.82-36.76,18.06-63.19h-91.38Z"/>
      <path class="cls-1" d="M1270.26,726.53c-54.78,0-109.57,0-164.35,0-3.42,0-6.85.12-10.27-.05-15.07-.75-24.91-9.92-25.05-23.24-.14-13.35,9.66-22.96,24.59-23.62,8.3-.37,16.63-.1,24.94-.1,104.19,0,208.38,0,312.57,0,3.42,0,6.85-.08,10.27.02,16.03.48,26.5,9.64,26.65,23.24.15,13.59-10.36,23.46-26.18,23.66-23.96.3-47.94.09-71.9.09-33.75,0-67.5,0-101.25,0Z"/>
      <path class="cls-1" d="M1269.54,844.06c-29.3,0-58.6.1-87.89-.04-17.93-.08-29.05-9.65-28.6-24.13.43-13.96,11.14-22.77,28.45-22.8,59.08-.1,118.17-.1,177.25,0,17.95.03,29.07,9.64,28.61,24.12-.45,13.96-11.16,22.73-28.46,22.81-29.79.14-59.57.04-89.36.04Z"/>
    </g>
  </g>
</svg>